<svg xmlns="http://www.w3.org/2000/svg" width="41" height="34" viewBox="0 0 41 34">
    <g fill="none" fill-rule="nonzero">
        <path fill="#1856ED" d="M13.186.388a1.842 1.842 0 0 1 2.077-.126c.82.441 1.63.883 2.444 1.325 3.307 1.79 6.614 3.583 9.92 5.376.372.17.696.429.946.752.307.435.372.995.172 1.488-.141.38-8.424 15.897-12.373 23.286a2.703 2.703 0 0 1-.74.934 1.565 1.565 0 0 1-1.712.141c-.628-.3-1.24-.629-1.854-.96-3.207-1.74-6.411-3.482-9.613-5.226-.52-.28-1.043-.554-1.547-.85a1.652 1.652 0 0 1-.676-2.314C.941 22.845 9.099 7.581 12.444 1.306a2.65 2.65 0 0 1 .742-.918z"/>
        <path fill="#557CF1" d="M20.933 1.017a1.842 1.842 0 0 1 2.041.395c.685.623 1.361 1.254 2.04 1.883l8.267 7.675c.316.255.565.582.727.953.188.498.111 1.056-.205 1.484-.221.333-12.121 13.293-17.793 19.47-.26.308-.584.554-.95.72a1.567 1.567 0 0 1-1.695-.289 33.036 33.036 0 0 1-1.546-1.39c-2.67-2.478-5.34-4.957-8.005-7.437a45.12 45.12 0 0 1-1.293-1.21 1.649 1.649 0 0 1-.08-2.408c1.03-1.148 12.736-13.91 17.542-19.144.26-.303.584-.543.95-.702z"/>
        <path fill="#809FED" d="M32.378 5.874a1.84 1.84 0 0 1 1.734 1.146c.396.837.778 1.678 1.165 2.519a58416.6 58416.6 0 0 1 4.7 10.25c.193.36.297.762.302 1.17a1.565 1.565 0 0 1-.758 1.292c-.34.221-16.286 7.65-23.891 11.19a2.72 2.72 0 0 1-1.153.302 1.564 1.564 0 0 1-1.454-.914 38.695 38.695 0 0 1-.904-1.881c-1.52-3.309-3.037-6.62-4.551-9.935-.246-.537-.502-1.07-.732-1.614a1.648 1.648 0 0 1 .849-2.254c1.39-.662 17.088-7.977 23.535-10.986.36-.182.755-.28 1.158-.285z"/>
    </g>
</svg>
